<?xml version="1.0" encoding="UTF-8" standalone="no"?>
<svg
   viewBox="0 0 512 512"
   version="1.1"
   id="svg1"
   sodipodi:docname="discord.svg"
   width="512"
   height="512"
   inkscape:version="1.3.2 (091e20e, 2023-11-25, custom)"
   xmlns:inkscape="http://www.inkscape.org/namespaces/inkscape"
   xmlns:sodipodi="http://sodipodi.sourceforge.net/DTD/sodipodi-0.dtd"
   xmlns="http://www.w3.org/2000/svg"
   xmlns:svg="http://www.w3.org/2000/svg">
  <defs
     id="defs1" />
  <sodipodi:namedview
     id="namedview1"
     pagecolor="#ffffff"
     bordercolor="#000000"
     borderopacity="0.25"
     inkscape:showpageshadow="2"
     inkscape:pageopacity="0.0"
     inkscape:pagecheckerboard="0"
     inkscape:deskcolor="#d1d1d1"
     inkscape:zoom="0.78046875"
     inkscape:cx="41.641642"
     inkscape:cy="378.61862"
     inkscape:window-width="1920"
     inkscape:window-height="1009"
     inkscape:window-x="-8"
     inkscape:window-y="-8"
     inkscape:window-maximized="1"
     inkscape:current-layer="svg1" />
  <!-- Font Awesome Free 5.15.4 by @fontawesome - https://fontawesome.com License - https://fontawesome.com/license/free (Icons: CC BY 4.0, Fonts: SIL OFL 1.1, Code: MIT License) -->
  <path
     d="m 427.55108,99.856035 a 1.2581246,1.2581246 0 0 0 -0.6408,-0.58713 406.84815,406.84815 0 0 0 -100.3866,-31.12265 1.5231695,1.5231695 0 0 0 -1.61292,0.76326 283.04533,283.04533 0 0 0 -12.49737,25.66575 375.6324,375.6324 0 0 0 -112.74977,0 259.62744,259.62744 0 0 0 -12.69448,-25.66575 1.585237,1.585237 0 0 0 -1.61376,-0.76326 405.69403,405.69403 0 0 0 -100.388284,31.12349 1.4359396,1.4359396 0 0 0 -0.66093,0.56699 C 20.36911,195.31834 2.8543378,288.45227 11.44649,380.43292 a 1.6909195,1.6909195 0 0 0 0.641644,1.15329 409.02974,409.02974 0 0 0 123.149436,62.226 1.5936245,1.5936245 0 0 0 1.73034,-0.56699 292.05266,292.05266 0 0 0 25.19353,-40.96622 1.5600745,1.5600745 0 0 0 -0.85469,-2.17068 269.38377,269.38377 0 0 1 -38.47177,-18.3292 1.5810433,1.5810433 0 0 1 -0.15517,-2.62193 c 2.58503,-1.93668 5.17173,-3.95135 7.64017,-5.98616 a 1.5256858,1.5256858 0 0 1 1.59362,-0.21472 c 80.71205,36.83537 168.09384,36.83537 247.85056,0 a 1.5198145,1.5198145 0 0 1 1.61375,0.19543 c 2.46928,2.0348 5.05515,4.06877 7.65946,6.00545 a 1.5802045,1.5802045 0 0 1 -0.13587,2.62193 252.80505,252.80505 0 0 1 -38.49023,18.3099 1.5726558,1.5726558 0 0 0 -0.83875,2.18998 327.99728,327.99728 0 0 0 25.17423,40.94357 1.5634295,1.5634295 0 0 0 1.73035,0.58712 407.67264,407.67264 0 0 0 123.34821,-62.22348 1.578527,1.578527 0 0 0 0.64164,-1.13399 C 510.75338,274.11301 483.24575,181.74233 427.55108,99.856035 Z M 174.21511,324.42625 c -24.30026,0 -44.32289,-22.29984 -44.32289,-49.6867 0,-27.38685 19.63429,-49.68837 44.32289,-49.68837 24.88151,0 44.71039,22.49527 44.32205,49.68669 0,27.38854 -19.63513,49.68838 -44.32205,49.68838 z m 163.87493,0 c -24.29942,0 -44.32206,-22.29984 -44.32206,-49.6867 0,-27.38685 19.6343,-49.68837 44.32206,-49.68837 24.88318,0 44.71123,22.49527 44.32289,49.68669 0,27.38854 -19.43971,49.68838 -44.32289,49.68838 z"
     id="path1"
     style="stroke-width:0.999999;fill:#ffffff" />
</svg>
